<?xml version="1.0" standalone="no"?>
<!DOCTYPE svg PUBLIC "-//W3C//DTD SVG 20010904//EN"
 "http://www.w3.org/TR/2001/REC-SVG-20010904/DTD/svg10.dtd">
<svg version="1.0" xmlns="http://www.w3.org/2000/svg"
 width="500.000000pt" height="500.000000pt" viewBox="0 0 500.000000 500.000000"
 preserveAspectRatio="xMidYMid meet">

<g transform="translate(0.000000,500.000000) scale(0.100000,-0.100000)"
stroke="none">
<path d="M3424 4184 c86 -21 175 -71 193 -110 38 -78 -29 -168 -179 -241 -214
-104 -474 -147 -883 -146 -246 1 -651 30 -754 54 -74 17 -56 3 46 -35 194 -72
337 -101 763 -151 393 -46 515 -82 590 -173 37 -45 71 -142 58 -165 -21 -38
-46 -41 -313 -42 -279 -1 -321 -6 -556 -65 -132 -33 -224 -73 -246 -107 -14
-22 -14 -25 2 -43 28 -31 136 -60 224 -60 116 0 323 25 667 80 93 15 199 13
214 -5 30 -36 -180 -119 -420 -167 -96 -19 -147 -23 -310 -23 -172 0 -205 3
-278 23 -238 65 -424 218 -615 506 -52 78 -115 163 -142 189 -186 187 -482
270 -644 181 -68 -36 -93 -69 -98 -131 -6 -68 19 -110 82 -143 48 -24 56 -25
240 -25 212 -1 234 -5 379 -77 180 -88 305 -223 306 -329 0 -45 -20 -64 -57
-54 -30 7 -128 102 -203 196 -61 77 -99 101 -166 107 -43 4 -59 1 -74 -13 -38
-34 -16 -129 42 -181 12 -12 79 -50 147 -84 134 -66 171 -97 171 -141 0 -62
-96 -64 -217 -4 -83 41 -121 81 -196 207 -29 47 -53 85 -55 83 -7 -6 48 -155
88 -238 59 -125 132 -228 229 -327 154 -154 315 -245 539 -302 102 -26 141
-30 304 -35 197 -6 272 1 423 39 174 43 303 115 422 235 233 235 372 500 493
935 l32 116 81 58 c100 70 177 106 229 108 33 1 45 -5 69 -32 27 -30 29 -39
29 -108 0 -87 -37 -212 -95 -323 -73 -138 -217 -279 -375 -367 -36 -19 -57
-33 -48 -30 9 3 36 10 60 16 24 7 82 32 129 57 150 78 311 263 409 468 66 139
113 289 114 368 1 64 -1 70 -28 94 -40 34 -85 28 -260 -36 -174 -64 -203 -69
-237 -42 l-26 20 5 145 c4 133 3 148 -17 189 -28 57 -74 76 -214 88 -134 11
-143 10 -73 -7z" fill="#603201"/>
<path d="M3120 4144 c86 -27 147 -71 137 -98 -11 -28 -95 -58 -222 -78 -154
-25 -678 -37 -761 -19 -68 16 -70 35 -6 62 97 42 182 52 456 53 l260 1 -90 17
c-331 62 -633 65 -1005 8 -168 -26 -310 -70 -331 -104 -24 -37 111 -88 307
-115 302 -43 421 -51 729 -51 268 0 328 3 422 20 141 25 243 54 307 87 89 44
107 61 107 96 0 36 -19 49 -120 86 -49 18 -242 63 -259 60 -3 -1 28 -12 69
-25z" fill="#eca146" />
<path d="M985 4131 c-67 -16 -95 -48 -95 -106 0 -67 43 -97 189 -135 83 -21
163 -50 221 -80 58 -29 149 -118 182 -177 17 -30 32 -52 35 -49 7 7 -64 210
-96 274 -50 98 -119 173 -197 214 -103 53 -181 73 -239 59z" fill="#603201"/>
<path d="M268 1866 c-83 -30 -128 -82 -128 -148 0 -44 31 -84 73 -94 22 -5 27
-3 27 13 0 11 -9 28 -20 38 -40 37 -16 105 46 131 88 37 203 4 257 -72 76
-108 27 -304 -89 -356 -58 -25 -108 -17 -100 15 4 20 56 360 56 372 0 8 -73 6
-87 -3 -6 -4 -17 -56 -24 -115 l-13 -109 -36 -18 c-94 -48 -129 -142 -74 -196
22 -23 31 -25 67 -20 50 8 74 8 149 0 146 -15 263 83 288 244 19 112 -23 227
-100 278 -78 51 -209 69 -292 40z m-18 -420 c0 -61 -42 -105 -67 -71 -14 20
-8 41 20 73 27 29 47 28 47 -2z" fill="#603201"/>
<path d="M1178 1855 c-30 -30 -33 -43 -58 -251 -22 -183 -29 -206 -65 -230
-23 -15 -28 -15 -41 -2 -13 13 -13 30 1 146 9 73 13 136 10 142 -10 15 -41 12
-64 -7 -17 -15 -24 -40 -37 -133 -20 -140 -42 -171 -103 -148 -24 8 -24 9 -16
106 5 53 9 115 9 137 l1 40 -42 3 c-30 2 -43 -1 -43 -9 0 -7 -7 -69 -16 -137
-9 -68 -13 -134 -10 -148 8 -30 61 -64 101 -64 17 0 48 11 70 24 l39 24 31
-24 c39 -30 62 -30 119 -2 41 20 45 20 61 5 40 -41 118 -32 174 19 38 34 61
43 61 24 0 -5 19 -23 42 -40 31 -22 52 -30 85 -30 50 0 158 45 187 78 l19 22
33 -39 c18 -21 47 -44 64 -51 42 -17 117 -7 178 24 50 25 132 107 132 132 0
31 -25 24 -61 -19 -68 -79 -160 -108 -212 -66 -68 53 -47 200 31 227 38 13 72
-8 72 -45 0 -25 -59 -93 -81 -93 -5 0 -9 -7 -9 -15 0 -21 36 -19 87 6 113 55
113 169 -1 200 -46 13 -88 5 -143 -27 -49 -28 -79 -73 -93 -141 -12 -55 -33
-79 -95 -112 -52 -28 -97 -27 -131 2 -57 49 -39 188 28 223 27 14 32 14 55 -1
23 -15 25 -22 19 -61 l-6 -44 40 20 c70 36 59 109 -21 137 -66 24 -144 -1
-197 -61 -28 -33 -37 -54 -57 -140 -8 -36 -66 -96 -93 -96 -39 0 -46 24 -35
115 10 78 13 87 55 137 73 86 101 163 78 218 -22 54 -109 68 -152 25z m110
-78 c3 -40 -38 -127 -60 -127 -13 0 -3 123 13 152 17 32 44 18 47 -25z" fill="#603201"/>
<path d="M2355 1871 c-47 -12 -91 -38 -114 -67 -45 -57 -35 -141 20 -169 38
-20 56 -19 62 6 4 15 -1 23 -19 31 -29 13 -41 50 -26 82 24 54 152 83 226 52
94 -39 104 -170 14 -194 -18 -4 -34 -17 -39 -30 -7 -19 -5 -22 19 -22 50 0
104 21 140 55 35 31 37 37 37 93 0 74 -21 107 -89 141 -52 26 -172 38 -231 22z" fill="#603201"/>
<path d="M3212 1865 c-26 -19 -48 -92 -57 -190 -9 -106 -25 -216 -36 -253 -12
-37 -48 -65 -73 -56 -20 8 -21 53 -1 189 15 109 11 121 -35 109 -14 -4 -34 -7
-45 -6 -80 4 -124 2 -150 -8 -70 -27 -116 -100 -117 -189 -1 -69 19 -111 65
-140 44 -27 89 -27 137 0 l38 22 30 -22 c39 -27 79 -27 122 3 l35 24 28 -24
c18 -15 41 -24 63 -24 37 0 102 29 123 54 15 18 41 22 41 6 0 -5 17 -21 37
-35 46 -31 93 -32 143 -4 l38 22 28 -22 c14 -11 40 -21 57 -21 31 0 97 35 97
51 0 5 7 9 15 9 8 0 15 -4 15 -8 0 -15 77 -52 106 -52 16 0 44 9 62 20 40 25
48 25 79 0 41 -32 88 -24 141 23 l22 20 23 -20 c53 -49 97 -55 163 -22 l42 22
28 -22 c42 -33 89 -26 141 22 l22 20 30 -32 c41 -44 91 -43 137 3 29 29 34 41
34 80 0 51 -16 90 -49 120 -26 24 -27 52 -3 65 26 14 62 2 62 -20 0 -21 12
-24 41 -9 22 12 26 59 7 78 -16 16 -83 15 -109 0 -17 -10 -23 -10 -26 0 -3 7
-22 12 -47 12 l-42 0 -13 -92 c-19 -146 -75 -239 -118 -195 -13 12 -13 28 1
128 24 170 27 159 -42 158 -32 -1 -68 1 -79 5 -30 9 -98 -8 -139 -36 -46 -31
-84 -108 -84 -170 0 -39 -5 -54 -25 -73 -26 -27 -33 -29 -54 -16 -13 8 -11 40
13 228 15 120 30 233 33 251 5 31 4 32 -30 32 -47 0 -63 -18 -71 -82 -3 -29
-9 -71 -12 -94 l-6 -40 -63 0 c-53 0 -72 -5 -112 -30 -55 -34 -92 -96 -93
-157 0 -72 -44 -134 -80 -112 -16 10 -10 124 15 267 5 32 -12 40 -54 28 -19
-5 -44 -5 -63 1 -46 13 -131 -6 -170 -39 -37 -32 -78 -114 -78 -161 0 -67
-108 -136 -125 -80 -4 11 -4 57 0 101 7 79 8 82 57 135 59 65 80 110 81 172 0
36 -5 48 -27 68 -32 27 -90 31 -124 8z m106 -88 c2 -28 -4 -50 -25 -82 -15
-25 -33 -45 -39 -45 -13 0 2 138 18 157 20 25 43 10 46 -30z m-365 -174 c10
-16 -20 -181 -36 -206 -44 -67 -127 -30 -127 57 0 52 30 126 58 140 28 16 98
21 105 9z m653 -79 c-6 -85 -15 -113 -44 -146 -38 -44 -112 1 -112 69 0 56 18
112 45 139 19 19 35 24 71 24 l47 0 -7 -86z m427 31 c-3 -90 -14 -134 -39
-165 -31 -36 -63 -38 -91 -7 -28 31 -34 62 -21 121 15 72 54 108 110 104 l43
-3 -2 -50z m423 41 c3 -7 0 -51 -6 -97 -9 -68 -17 -89 -38 -111 -33 -35 -65
-36 -91 -2 -37 48 -22 166 26 204 30 24 101 28 109 6z m328 -118 c33 -46 11
-130 -29 -114 -11 4 -15 21 -15 64 0 77 14 93 44 50z" fill="#603201"/>
<path d="M2377 1756 c-20 -20 -63 -377 -48 -404 36 -68 136 -69 188 -2 7 8 13
39 13 69 0 52 -2 57 -46 99 l-46 44 11 76 c7 43 14 89 17 105 5 26 4 27 -34
27 -23 0 -47 -6 -55 -14z m113 -329 c0 -41 -10 -56 -40 -59 -23 -3 -25 0 -28
49 -2 29 2 62 9 75 l12 22 23 -28 c15 -16 24 -40 24 -59z" fill="#603201"/>
</g>
</svg>
