<?xml version="1.0" standalone="no"?>
<!DOCTYPE svg PUBLIC "-//W3C//DTD SVG 20010904//EN"
 "http://www.w3.org/TR/2001/REC-SVG-20010904/DTD/svg10.dtd">
<svg version="1.0" xmlns="http://www.w3.org/2000/svg"
 width="600.000000pt" height="600.000000pt" viewBox="0 0 600.000000 600.000000"
 preserveAspectRatio="xMidYMid meet">

<g transform="translate(0.000000,600.000000) scale(0.100000,-0.100000)"
 stroke="none">
<path d="M4433 4692 c-6 -4 18 -8 54 -9 37 -1 69 -6 72 -11 3 -5 22 -12 42
-16 44 -8 184 -77 221 -108 33 -28 67 -102 68 -146 0 -68 -61 -162 -149 -226
-49 -36 -176 -104 -276 -148 -122 -53 -287 -98 -470 -129 -27 -4 -90 -15 -140
-23 -368 -61 -1055 -61 -1655 0 -85 9 -195 20 -245 25 -49 5 -109 14 -132 19
-23 6 -54 10 -70 10 -69 -1 346 -149 537 -192 25 -5 63 -14 85 -19 70 -16 267
-49 355 -59 130 -16 246 -30 340 -40 290 -32 513 -60 570 -71 214 -43 281 -63
383 -116 127 -66 192 -148 243 -303 16 -48 16 -53 -1 -90 -15 -34 -27 -43 -74
-61 -47 -18 -69 -20 -141 -15 -320 23 -605 17 -805 -15 -33 -5 -89 -14 -125
-20 -74 -11 -96 -16 -275 -59 -203 -49 -208 -51 -337 -114 -112 -56 -143 -83
-134 -120 14 -54 76 -90 209 -121 140 -31 466 -9 947 66 416 65 632 87 690 72
103 -27 -17 -127 -237 -196 -168 -53 -348 -96 -495 -118 -587 -85 -1019 -29
-1328 174 -130 85 -233 172 -342 287 -111 116 -166 188 -330 433 -174 259
-247 339 -412 450 -183 123 -378 193 -592 213 -133 12 -304 -40 -382 -117 -52
-51 -102 -144 -102 -189 0 -81 83 -203 158 -231 81 -31 169 -39 431 -39 236 0
277 -2 347 -20 219 -56 457 -192 622 -356 67 -67 89 -97 122 -167 33 -69 40
-96 40 -144 0 -70 -17 -93 -71 -93 -75 0 -165 80 -352 313 -89 111 -122 145
-171 174 -55 33 -68 37 -136 37 -80 1 -115 -14 -141 -61 -19 -36 -13 -110 13
-162 48 -96 110 -143 324 -248 156 -75 207 -105 244 -142 52 -52 68 -97 47
-140 -24 -52 -148 -56 -277 -10 -204 73 -298 165 -439 429 -13 25 -32 56 -42
69 -11 13 -19 30 -19 37 0 7 -4 16 -10 19 -10 6 -7 -8 10 -50 4 -11 13 -40 20
-65 25 -100 77 -231 135 -345 120 -235 250 -408 439 -581 141 -131 246 -203
426 -292 195 -97 378 -154 640 -198 125 -22 614 -31 715 -14 234 39 377 76
520 134 157 63 368 196 440 278 21 24 83 92 138 151 98 106 132 145 172 202
11 15 29 39 41 54 67 83 244 416 319 601 60 144 182 515 225 680 l32 125 72
56 c214 169 396 254 501 235 169 -32 166 -383 -5 -714 -89 -171 -166 -278
-294 -407 -105 -106 -291 -241 -405 -293 -76 -35 -51 -38 56 -7 109 31 246 99
338 167 158 117 339 321 453 510 102 169 230 461 267 608 9 36 20 79 25 96 6
17 10 80 10 140 l0 110 -34 33 c-33 32 -38 33 -108 33 -74 -2 -151 -21 -288
-75 -290 -114 -385 -137 -443 -108 -53 26 -58 49 -46 207 15 215 3 348 -39
427 -43 80 -140 115 -383 137 -135 12 -190 12 -206 2z" fill="#603201"/>
<path d="M3910 4647 c0 -3 39 -17 88 -32 162 -51 272 -113 272 -155 0 -33 -54
-74 -126 -97 -107 -34 -154 -44 -294 -63 -36 -5 -101 -13 -145 -20 -117 -16
-510 -40 -660 -39 -128 0 -380 20 -463 38 -53 11 -87 38 -71 58 30 35 185 84
344 107 267 39 431 43 845 20 134 -7 117 6 -55 41 -148 30 -287 48 -495 66
-161 13 -660 7 -820 -10 -52 -6 -138 -15 -190 -20 -52 -5 -131 -16 -175 -25
-44 -9 -107 -21 -140 -27 -175 -31 -321 -77 -393 -122 -49 -31 -51 -33 -39
-57 40 -81 323 -150 877 -216 69 -8 186 -22 260 -31 165 -20 941 -30 1030 -14
30 6 138 22 240 36 269 36 474 91 618 165 85 44 107 60 140 107 29 41 28 64
-5 95 -70 64 -348 153 -573 184 -19 2 -43 7 -52 10 -10 3 -18 3 -18 1z" fill="#eca146"/>
<path d="M435 4584 c-61 -9 -136 -58 -160 -104 -25 -48 -20 -96 18 -178 16
-34 113 -76 277 -121 268 -73 400 -131 508 -224 68 -58 212 -218 212 -236 0
-6 5 -11 10 -11 12 0 13 41 1 72 -5 13 -19 55 -31 93 -31 96 -118 275 -178
365 -102 155 -255 268 -430 319 -70 20 -176 32 -227 25z" fill="#603201"/>
</g>
</svg>
